<svg xmlns="http://www.w3.org/2000/svg" width="438.602" height="181.18" viewBox="0 0 438.602 181.18"><defs><style>.a{fill:#fff;}.b{fill:#fcdc4a;}.c{fill:#211715;}</style></defs><path class="a" d="M436.091,86.7l-.113-.189a5.654,5.654,0,0,0-.819-2.482c-2.658-4.449-7.942-6.814-12.438-8.264-16.647-5.369-38.084-5.625-47.315-5.625-7.84,0-30.662.254-47.314,5.625-4.5,1.45-9.781,3.815-12.439,8.264a5.654,5.654,0,0,0-.819,2.482l-.113.189V159.04c0,6.423,2.886,8.925,6.554,10.961,6.784,3.765,18.16,6.261,25.652,7.11,7.359.833,20.461,1.677,28.461,1.677,8.148,0,21.091-.844,28.449-1.677,7.492-.849,18.868-3.345,25.652-7.11a12.13,12.13,0,0,0,6.6-10.961Z"></path><path class="a" d="M279.937,110.885v-1.52l-.932-1.56c-2.658-4.449-7.942-6.814-12.438-8.265-16.647-5.368-38.084-5.624-47.315-5.624-7.84,0-30.662.254-47.314,5.624-4.5,1.451-9.781,3.816-12.439,8.265l-.932,1.56v1.042h0v47.522c0,6.423,2.886,8.924,6.554,10.96,6.783,3.766,18.16,6.262,25.652,7.11,7.359.834,20.46,1.678,28.461,1.678,8.148,0,21.091-.845,28.449-1.678,7.492-.848,18.868-3.344,25.652-7.11a12.129,12.129,0,0,0,6.6-10.96V110.885Z"></path><path class="a" d="M319.039,118.811c-2.539-1.88-4.318-4.506-4.318-9.549V85.587l.932-1.56c2.658-4.449,7.942-6.814,12.439-8.264,16.652-5.371,39.474-5.625,47.314-5.625,9.231,0,30.668.256,47.315,5.625,4.5,1.45,9.78,3.815,12.438,8.264l.932,1.56v23.675a12.13,12.13,0,0,1-6.6,10.961c-6.784,3.766-18.16,6.261-25.652,7.11-7.358.833-20.3,1.677-28.449,1.677-8,0-21.1-.844-28.461-1.677-7.492-.849-18.868-3.344-25.652-7.11A20.238,20.238,0,0,1,319.039,118.811Z"></path><path class="a" d="M6.731,165.478c-2.539-1.881-4.318-4.506-4.318-9.549V132.254l.932-1.56c2.658-4.449,7.942-6.814,12.438-8.265,16.653-5.371,39.474-5.624,47.315-5.624,9.231,0,30.668.255,47.314,5.624,4.5,1.451,9.781,3.816,12.439,8.265l.932,1.56v23.675a12.131,12.131,0,0,1-6.6,10.96c-6.784,3.766-18.16,6.262-25.652,7.11-7.358.833-20.3,1.678-28.45,1.678-8,0-21.1-.844-28.46-1.678-7.492-.848-18.869-3.344-25.652-7.11A20.085,20.085,0,0,1,6.731,165.478Z"></path><path class="a" d="M162.885,142.589c-2.539-1.881-4.318-4.506-4.318-9.549V109.365l.932-1.56c2.658-4.449,7.942-6.814,12.439-8.265,16.652-5.37,39.474-5.624,47.314-5.624,9.231,0,30.668.256,47.315,5.624,4.5,1.451,9.78,3.816,12.438,8.265l.932,1.56V133.04a12.13,12.13,0,0,1-6.6,10.961c-6.784,3.765-18.16,6.261-25.652,7.109-7.358.834-20.3,1.678-28.449,1.678-8,0-21.1-.844-28.461-1.678-7.492-.848-18.869-3.344-25.652-7.109A20.238,20.238,0,0,1,162.885,142.589Z"></path><path class="b" d="M430.706,11.024a4.112,4.112,0,0,0-2.218-3.741A32.281,32.281,0,0,0,412.277,2.44,37.873,37.873,0,0,0,391.094,7.7c-10.467,6.327-13.33,17.681-13.938,20.838a1.235,1.235,0,0,0,.622,1.294c3.4,2.093,17.669,9.822,32.223,5.221,2.552-.807,11.294-3.7,16.781-11.568C429.586,19.461,430.4,14.216,430.706,11.024Z" style="fill: rgb(0, 110, 98);"></path><path class="b" d="M320.107,11.024a4.109,4.109,0,0,1,2.217-3.741A32.281,32.281,0,0,1,338.535,2.44,37.873,37.873,0,0,1,359.718,7.7c10.468,6.327,13.331,17.681,13.938,20.838a1.233,1.233,0,0,1-.622,1.294c-3.4,2.093-17.669,9.822-32.223,5.221-2.552-.807-11.294-3.7-16.781-11.568C321.227,19.461,320.411,14.216,320.107,11.024Z" style="fill: rgb(0, 110, 98);"></path><path class="b" d="M262.271,51.665a3.2,3.2,0,0,0-1.725-2.91,25.116,25.116,0,0,0-12.611-3.768,29.459,29.459,0,0,0-16.479,4.091c-8.143,4.921-10.37,13.754-10.842,16.21a.957.957,0,0,0,.483,1.006c2.649,1.629,13.745,7.641,25.067,4.062,1.985-.628,8.786-2.876,13.054-9C261.4,58.228,262.033,54.148,262.271,51.665Z" style="fill: rgb(0, 110, 98);"></path><path class="b" d="M176.233,51.665a3.2,3.2,0,0,1,1.725-2.91,25.116,25.116,0,0,1,12.611-3.768,29.459,29.459,0,0,1,16.479,4.091c8.143,4.921,10.37,13.754,10.842,16.21a.957.957,0,0,1-.483,1.006c-2.649,1.629-13.745,7.641-25.067,4.062-1.985-.628-8.786-2.876-13.054-9C177.105,58.228,176.471,54.148,176.233,51.665Z" style="fill: rgb(0, 110, 98);"></path><path class="b" d="M105.482,84.836a3.2,3.2,0,0,0-1.725-2.91,25.109,25.109,0,0,0-12.611-3.768,29.466,29.466,0,0,0-16.478,4.091C66.525,87.17,64.3,96,63.825,98.459a.961.961,0,0,0,.484,1.007c2.649,1.628,13.745,7.64,25.067,4.061,1.985-.628,8.786-2.875,13.054-9C104.611,91.4,105.245,87.32,105.482,84.836Z" style="fill: rgb(0, 110, 98);"></path><path class="c" d="M375.406,67.738c-7.357,0-14.717.269-22.044.947-9.5.879-19.424,2.156-28.373,5.635-4.428,1.721-8.946,4.256-11.408,8.5-2.632,4.533-.21,9.261,3.537,12.228,3.624,2.869,8.1,4.531,12.477,5.881a94.257,94.257,0,0,0,14.089,3.143,233.1,233.1,0,0,0,27.233,2.037,242.3,242.3,0,0,0,27.445-1.07c9.168-.786,18.4-2.212,27.028-5.548,4.186-1.62,8.4-3.673,11.145-7.363a8.542,8.542,0,0,0,1.708-6.712,11.783,11.783,0,0,0-3.686-5.921c-3.509-3.332-8.15-5.147-12.713-6.513A105.589,105.589,0,0,0,407.1,69.8a202.86,202.86,0,0,0-27.175-2.033q-2.257-.03-4.515-.028c-3.088,0-3.093,4.8,0,4.8,7.423,0,14.848.233,22.241.921,9.073.844,18.549,2.169,27.067,5.554a22.943,22.943,0,0,1,5.291,2.879c1.374,1.031,3.2,2.687,3.542,4.464.631,3.333-3.957,5.949-6.417,7.175a58.362,58.362,0,0,1-12.36,4.178,93.038,93.038,0,0,1-12.083,2.117c-8.617.907-17.32,1.457-25.985,1.542a256.833,256.833,0,0,1-25.7-1.262,89.052,89.052,0,0,1-24.649-5.383c-3.142-1.24-7.364-3.127-8.821-6.434-1.525-3.463,3.265-6.611,5.824-7.993a47.947,47.947,0,0,1,12.009-4.036,123.709,123.709,0,0,1,13.386-2.29,219.112,219.112,0,0,1,23.2-1.412q1.727-.021,3.452-.02C378.5,72.537,378.5,67.737,375.406,67.738Z"></path><path class="c" d="M312.321,86.629c0,7.5-.029,15,0,22.5a14.558,14.558,0,0,0,2.659,9.037c2.049,2.658,5.127,4.309,8.153,5.619a84.309,84.309,0,0,0,24.076,5.974c7.915.882,15.9,1.366,23.863,1.581a235.106,235.106,0,0,0,23.93-.807,125.517,125.517,0,0,0,23.335-3.555c7.417-2,16.356-4.748,19.3-12.642,1.42-3.809.855-8.594.855-12.591V87.107c0-3.089-4.8-3.094-4.8,0,0,7.317.032,14.634,0,21.951a9.828,9.828,0,0,1-2.786,7.144c-2.369,2.368-5.845,3.6-8.952,4.668a94.549,94.549,0,0,1-22.042,4.461c-7.825.718-15.7,1.217-23.563,1.276-7.756.057-15.539-.441-23.266-1.083a104.961,104.961,0,0,1-21.858-3.878,40.406,40.406,0,0,1-9.929-4.2,8.144,8.144,0,0,1-4.07-6.187,33.559,33.559,0,0,1-.1-4.244V86.629c0-3.088-4.8-3.094-4.8,0Z"></path><path class="c" d="M312.321,111.518c0,7.5-.029,15,0,22.5a14.558,14.558,0,0,0,2.659,9.037c2.049,2.657,5.127,4.309,8.153,5.619a84.342,84.342,0,0,0,24.076,5.974c7.915.882,15.9,1.366,23.863,1.581a235.106,235.106,0,0,0,23.93-.807,125.518,125.518,0,0,0,23.335-3.556c7.417-1.994,16.356-4.747,19.3-12.641,1.42-3.809.855-8.594.855-12.591V112c0-3.089-4.8-3.094-4.8,0,0,7.317.032,14.634,0,21.951a9.828,9.828,0,0,1-2.786,7.144c-2.369,2.368-5.845,3.6-8.952,4.668a94.5,94.5,0,0,1-22.042,4.46c-7.825.718-15.7,1.218-23.563,1.276-7.756.058-15.539-.44-23.266-1.082a104.961,104.961,0,0,1-21.858-3.878,40.406,40.406,0,0,1-9.929-4.2,8.144,8.144,0,0,1-4.07-6.187,33.57,33.57,0,0,1-.1-4.245V111.518c0-3.089-4.8-3.094-4.8,0Z"></path><path class="c" d="M312.321,136.407c0,7.5-.029,15,0,22.5a14.558,14.558,0,0,0,2.659,9.037c2.049,2.657,5.127,4.309,8.153,5.618a84.311,84.311,0,0,0,24.076,5.975c7.915.882,15.9,1.366,23.863,1.581a235.106,235.106,0,0,0,23.93-.807,125.518,125.518,0,0,0,23.335-3.556c7.417-1.994,16.356-4.747,19.3-12.642,1.42-3.808.855-8.593.855-12.59V136.885c0-3.089-4.8-3.094-4.8,0,0,7.316.032,14.634,0,21.951a9.828,9.828,0,0,1-2.786,7.144c-2.369,2.368-5.845,3.6-8.952,4.668a94.5,94.5,0,0,1-22.042,4.46c-7.825.718-15.7,1.218-23.563,1.276-7.756.058-15.539-.44-23.266-1.082a104.961,104.961,0,0,1-21.858-3.878,40.406,40.406,0,0,1-9.929-4.2,8.144,8.144,0,0,1-4.07-6.187,33.57,33.57,0,0,1-.1-4.245V136.407c0-3.089-4.8-3.094-4.8,0Z"></path><path class="c" d="M372.892,26.914c-.219,15.26-.514,30.519-.767,45.779q-.117,7.131-.219,14.263c-.045,3.09,4.755,3.092,4.8,0,.218-15.26.514-30.519.766-45.778q.117-7.132.22-14.264c.044-3.09-4.756-3.091-4.8,0Z"></path><path class="c" d="M433.106,11.024c.142-3.368-2.5-5.407-5.173-6.865a32.694,32.694,0,0,0-7.845-3.018,40.937,40.937,0,0,0-18.746-.106c-9.1,2.08-17.179,7.253-22.032,15.353a36.884,36.884,0,0,0-4.223,10.375,10.427,10.427,0,0,0-.331,1.773,3.894,3.894,0,0,0,2.15,3.572,37.311,37.311,0,0,0,4.148,2.169c9.812,4.531,21.009,6.259,31.364,2.486a35.463,35.463,0,0,0,13.311-8.272,24.328,24.328,0,0,0,5.563-8.678,35.43,35.43,0,0,0,1.814-8.789,2.417,2.417,0,0,0-2.4-2.4,2.452,2.452,0,0,0-2.4,2.4c-.462,4.694-1.764,9.314-4.93,12.948A29.676,29.676,0,0,1,412.9,31.44c-.241.107-.213.1-.66.276q-.452.181-.908.35-.861.318-1.736.6a29.267,29.267,0,0,1-7.651,1.392,39.049,39.049,0,0,1-14.777-2.427,44.3,44.3,0,0,1-5.09-2.17q-.959-.48-1.9-1c-.22-.124-.44-.25-.658-.378a2.071,2.071,0,0,0-.312-.186c-.866-.309,1.574-.451.282,1.178a4.719,4.719,0,0,0,.3-1.337q.224-.906.5-1.8a30.424,30.424,0,0,1,1.635-4.261,28.672,28.672,0,0,1,7.748-10.079,29.665,29.665,0,0,1,8.263-4.539,36.73,36.73,0,0,1,17.009-2,30.918,30.918,0,0,1,8.233,2.114,25.572,25.572,0,0,1,3.233,1.645c.883.525,1.944,1.057,1.9,2.207C428.175,14.112,432.976,14.106,433.106,11.024Z"></path><path class="c" d="M322.507,11.024c-.077-1.8,3.027-2.888,4.372-3.515a29.463,29.463,0,0,1,7.109-2.163,35.6,35.6,0,0,1,15.938.757c7.242,2.021,13.744,6.285,17.714,13.046a29.624,29.624,0,0,1,3.421,8.486c.055.231.1.463.157.694.111.452-.1.257.054-.038.254-.5.677-.536.149-.291-.271.126-.527.308-.788.455A46.689,46.689,0,0,1,366.3,30.6c-8.43,3.638-17.931,4.733-26.724,1.5a30.679,30.679,0,0,1-4.979-2.333,27.873,27.873,0,0,1-5.855-4.4,18.948,18.948,0,0,1-4.594-6.827,30.381,30.381,0,0,1-1.642-7.513,2.468,2.468,0,0,0-2.4-2.4,2.416,2.416,0,0,0-2.4,2.4c.582,5.92,2.177,11.435,6.081,16.047a32.735,32.735,0,0,0,11.938,8.616,36.633,36.633,0,0,0,14.207,3.2,44.1,44.1,0,0,0,16.523-3.2,55,55,0,0,0,5.723-2.606c1.875-1,3.746-2,3.857-4.425a12.882,12.882,0,0,0-.816-4.025,38.33,38.33,0,0,0-2.072-5.321A33.4,33.4,0,0,0,353.12,2.063,40.976,40.976,0,0,0,332.711.717,33.548,33.548,0,0,0,323.5,3.832c-2.88,1.476-5.946,3.558-5.792,7.192C317.836,14.1,322.637,14.117,322.507,11.024Z"></path><path class="c" d="M219.252,91.516c-7.357,0-14.717.269-22.044.947-9.5.879-19.424,2.156-28.373,5.635-4.428,1.721-8.947,4.255-11.408,8.5-2.632,4.534-.21,9.262,3.537,12.229,3.623,2.869,8.1,4.531,12.477,5.88a94.151,94.151,0,0,0,14.088,3.144,233.137,233.137,0,0,0,27.234,2.037,242.536,242.536,0,0,0,27.445-1.07c9.168-.787,18.4-2.213,27.028-5.549,4.186-1.619,8.4-3.672,11.145-7.362a8.542,8.542,0,0,0,1.708-6.712,11.793,11.793,0,0,0-3.686-5.922c-3.509-3.331-8.15-5.146-12.713-6.513a105.733,105.733,0,0,0-14.748-3.179,203.024,203.024,0,0,0-27.175-2.032q-2.257-.03-4.515-.028c-3.088,0-3.093,4.8,0,4.8,7.423,0,14.848.233,22.241.92,9.073.845,18.549,2.17,27.067,5.555a22.943,22.943,0,0,1,5.291,2.879c1.374,1.031,3.2,2.687,3.541,4.464.632,3.332-3.956,5.949-6.416,7.175a58.362,58.362,0,0,1-12.36,4.178,93.021,93.021,0,0,1-12.084,2.116c-8.616.908-17.32,1.458-25.984,1.543a257.131,257.131,0,0,1-25.7-1.262A89.052,89.052,0,0,1,170.2,118.5c-3.142-1.24-7.364-3.127-8.821-6.434-1.525-3.463,3.265-6.611,5.824-7.994a47.985,47.985,0,0,1,12.009-4.035,123.709,123.709,0,0,1,13.386-2.29,219.114,219.114,0,0,1,23.2-1.413q1.726-.019,3.452-.019C222.341,96.315,222.346,91.515,219.252,91.516Z"></path><path class="c" d="M156.167,110.407c0,7.5-.029,15,0,22.505a14.558,14.558,0,0,0,2.659,9.037c2.048,2.657,5.127,4.309,8.153,5.618a84.311,84.311,0,0,0,24.076,5.975c7.915.882,15.9,1.366,23.863,1.581a235.106,235.106,0,0,0,23.93-.807,125.518,125.518,0,0,0,23.335-3.556c7.417-1.994,16.356-4.747,19.3-12.642,1.42-3.808.855-8.593.855-12.59V110.885c0-3.089-4.8-3.094-4.8,0,0,7.316.031,14.634,0,21.951a9.828,9.828,0,0,1-2.786,7.144c-2.369,2.368-5.845,3.6-8.952,4.668a94.5,94.5,0,0,1-22.042,4.46c-7.825.718-15.7,1.218-23.563,1.276-7.757.058-15.539-.44-23.266-1.082a104.961,104.961,0,0,1-21.858-3.878,40.406,40.406,0,0,1-9.929-4.2,8.144,8.144,0,0,1-4.07-6.187,33.57,33.57,0,0,1-.1-4.245V110.407c0-3.089-4.8-3.094-4.8,0Z"></path><path class="c" d="M156.167,135.3c0,7.5-.029,15,0,22.5a14.558,14.558,0,0,0,2.659,9.037c2.048,2.657,5.127,4.309,8.153,5.618a84.311,84.311,0,0,0,24.076,5.975c7.915.882,15.9,1.366,23.863,1.581a235.106,235.106,0,0,0,23.93-.807,125.518,125.518,0,0,0,23.335-3.556c7.417-2,16.356-4.747,19.3-12.642,1.42-3.808.855-8.593.855-12.59V135.773c0-3.088-4.8-3.093-4.8,0,0,7.317.031,14.635,0,21.952a9.829,9.829,0,0,1-2.786,7.144c-2.369,2.368-5.845,3.6-8.952,4.668A94.547,94.547,0,0,1,243.757,174c-7.825.718-15.7,1.218-23.563,1.276-7.757.058-15.539-.44-23.266-1.082a104.961,104.961,0,0,1-21.858-3.878,40.371,40.371,0,0,1-9.929-4.2,8.14,8.14,0,0,1-4.07-6.187,33.55,33.55,0,0,1-.1-4.244V135.3c0-3.089-4.8-3.094-4.8,0Z"></path><path class="c" d="M216.763,64.026c-.223,15.57-.544,31.138-.767,46.708-.044,3.09,4.756,3.091,4.8,0,.223-15.57.544-31.138.767-46.708.044-3.09-4.756-3.091-4.8,0Z"></path><path class="c" d="M264.671,51.665c.128-4.879-6.33-7.121-10.183-8.118a32.3,32.3,0,0,0-15.249-.155,26.972,26.972,0,0,0-17.426,12.2,29.161,29.161,0,0,0-3.308,8.106c-.456,1.905-.3,3.558,1.488,4.73a25.765,25.765,0,0,0,3.273,1.731c7.762,3.613,16.651,5.034,24.865,2.059a28.345,28.345,0,0,0,10.518-6.463c3.871-3.89,5.49-8.736,6.022-14.094a2.417,2.417,0,0,0-2.4-2.4,2.452,2.452,0,0,0-2.4,2.4,17.025,17.025,0,0,1-3.7,9.717,22.792,22.792,0,0,1-7.981,5.686,4.457,4.457,0,0,1-.441.185q-.353.14-.708.272c-.423.156-.851.3-1.281.441a22.312,22.312,0,0,1-5.914,1.084,30.029,30.029,0,0,1-11.341-1.883,32.7,32.7,0,0,1-3.748-1.6q-.687-.342-1.359-.713c-.2-.11-.4-.256-.61-.347-.073-.031-.185-.144-.257-.151-.719-.073.842,1.242.416,1.464a10.928,10.928,0,0,0,.618-2.42,22.062,22.062,0,0,1,1.162-3.067,21.729,21.729,0,0,1,11.935-11.148A28.23,28.23,0,0,1,249.511,47.5a24.034,24.034,0,0,1,6.447,1.555,18.677,18.677,0,0,1,2.5,1.23c.556.323,1.432.666,1.414,1.376C259.789,54.755,264.59,54.753,264.671,51.665Z"></path><path class="c" d="M178.633,51.665c-.029-1.127,2.6-2.048,3.468-2.424a23.6,23.6,0,0,1,5.392-1.535,27.171,27.171,0,0,1,12.05.716,21.919,21.919,0,0,1,13.342,10.072,21.275,21.275,0,0,1,2.316,6.054c.04.175.084.352.114.529.044.26.021.181,0,.18v.14l.769-1.109c-.032-.014-.193.131-.24.144a3.617,3.617,0,0,0-.66.378,35.24,35.24,0,0,1-3.274,1.614c-6.421,2.75-13.647,3.59-20.359,1.135a23.864,23.864,0,0,1-8.171-5.062,16.954,16.954,0,0,1-4.751-10.832,2.466,2.466,0,0,0-2.4-2.4,2.417,2.417,0,0,0-2.4,2.4c.463,4.667,1.695,8.992,4.724,12.665a25.791,25.791,0,0,0,9.683,7.034c7.872,3.405,16.488,3.071,24.4-.086a43.9,43.9,0,0,0,4.534-2.086c1.553-.836,2.823-1.692,2.929-3.654.138-2.547-1.144-5.456-2.177-7.7-3.081-6.7-8.95-11.323-15.838-13.645a32.458,32.458,0,0,0-16.082-1.078,26.649,26.649,0,0,0-7.463,2.526c-2.421,1.248-4.791,3.02-4.713,6.026C173.914,54.748,178.715,54.76,178.633,51.665Z"></path><path class="c" d="M63.1,114.405c-7.357,0-14.717.269-22.044.947-9.5.879-19.424,2.156-28.373,5.635-4.429,1.721-8.947,4.255-11.408,8.5-2.632,4.534-.21,9.261,3.537,12.229,3.623,2.869,8.1,4.531,12.477,5.88a94.151,94.151,0,0,0,14.088,3.144,233.137,233.137,0,0,0,27.234,2.037,242.536,242.536,0,0,0,27.445-1.07c9.168-.787,18.4-2.213,27.028-5.549,4.186-1.619,8.4-3.672,11.145-7.362a8.538,8.538,0,0,0,1.707-6.712,11.784,11.784,0,0,0-3.685-5.922c-3.509-3.331-8.15-5.146-12.713-6.513a105.589,105.589,0,0,0-14.748-3.179,203.037,203.037,0,0,0-27.175-2.032q-2.257-.032-4.515-.028c-3.088,0-3.093,4.8,0,4.8,7.423,0,14.847.232,22.241.92,9.073.845,18.549,2.169,27.067,5.555a22.977,22.977,0,0,1,5.291,2.878c1.374,1.032,3.2,2.688,3.541,4.465.632,3.332-3.956,5.949-6.416,7.175a58.362,58.362,0,0,1-12.36,4.178,93.19,93.19,0,0,1-12.084,2.116c-8.616.908-17.32,1.458-25.984,1.543a257.1,257.1,0,0,1-25.7-1.262,89.08,89.08,0,0,1-24.649-5.383c-3.142-1.24-7.364-3.127-8.821-6.435-1.525-3.462,3.265-6.611,5.824-7.993a47.985,47.985,0,0,1,12.009-4.035,123.709,123.709,0,0,1,13.386-2.29,219.114,219.114,0,0,1,23.2-1.413q1.726-.02,3.452-.019C66.187,119.2,66.192,114.4,63.1,114.405Z"></path><path class="c" d="M.013,133.3c0,7.5-.029,15,0,22.5a14.558,14.558,0,0,0,2.659,9.037c2.048,2.657,5.127,4.309,8.153,5.618A84.311,84.311,0,0,0,34.9,176.431c7.915.882,15.9,1.366,23.863,1.581a235.106,235.106,0,0,0,23.93-.807,125.518,125.518,0,0,0,23.335-3.556c7.417-2,16.355-4.747,19.3-12.642,1.42-3.808.855-8.593.855-12.59V133.773c0-3.088-4.8-3.093-4.8,0,0,7.317.031,14.635,0,21.952a9.829,9.829,0,0,1-2.786,7.144c-2.369,2.368-5.845,3.6-8.952,4.668A94.547,94.547,0,0,1,87.6,172c-7.825.718-15.7,1.218-23.563,1.276-7.757.058-15.539-.44-23.266-1.082a104.982,104.982,0,0,1-21.859-3.878,40.38,40.38,0,0,1-9.928-4.2,8.14,8.14,0,0,1-4.07-6.187,33.55,33.55,0,0,1-.1-4.244V133.3c0-3.089-4.8-3.094-4.8,0Z"></path><path class="c" d="M61.035,98.711c-.167,11.639-.507,23.274-.674,34.912-.045,3.09,4.755,3.091,4.8,0,.167-11.638.507-23.273.674-34.912.045-3.09-4.755-3.091-4.8,0Z"></path><path class="c" d="M107.882,84.836c.128-4.879-6.33-7.121-10.183-8.118a32.3,32.3,0,0,0-15.249-.155,26.979,26.979,0,0,0-17.425,12.2,29.173,29.173,0,0,0-3.308,8.106c-.456,1.905-.3,3.558,1.488,4.731a25.887,25.887,0,0,0,3.273,1.73c7.761,3.613,16.651,5.034,24.865,2.059A28.333,28.333,0,0,0,101.86,98.93c3.872-3.89,5.491-8.736,6.022-14.094a2.416,2.416,0,0,0-2.4-2.4,2.454,2.454,0,0,0-2.4,2.4,17.025,17.025,0,0,1-3.7,9.717,22.788,22.788,0,0,1-7.98,5.686,4.227,4.227,0,0,1-.441.185q-.353.139-.708.272c-.424.157-.851.3-1.281.442a22.35,22.35,0,0,1-5.914,1.083,30.038,30.038,0,0,1-11.342-1.883,32.946,32.946,0,0,1-3.748-1.6q-.687-.343-1.359-.714c-.2-.11-.4-.256-.61-.346-.073-.032-.184-.145-.256-.152-.719-.073.841,1.242.416,1.464a10.929,10.929,0,0,0,.617-2.42,22.059,22.059,0,0,1,1.163-3.067A21.729,21.729,0,0,1,79.875,82.358a28.228,28.228,0,0,1,12.848-1.683A24.11,24.11,0,0,1,99.17,82.23a18.677,18.677,0,0,1,2.5,1.23c.556.323,1.432.666,1.413,1.376C103,87.926,107.8,87.924,107.882,84.836Z"></path><path class="c" d="M252.35,162.818c.07,3.972.157,7.942.238,11.913a2.4,2.4,0,0,0,4.8,0c-.081-3.971-.168-7.941-.238-11.913a2.4,2.4,0,1,0-4.8,0Z"></path><path class="c" d="M408.5,163.929c.07,3.972.157,7.942.238,11.913a2.4,2.4,0,1,0,4.8,0c-.081-3.971-.168-7.941-.238-11.913a2.4,2.4,0,1,0-4.8,0Z"></path><path class="c" d="M96.2,160.818c.07,3.972.157,7.942.238,11.913a2.4,2.4,0,1,0,4.8,0c-.081-3.971-.168-7.941-.238-11.913a2.4,2.4,0,1,0-4.8,0Z"></path></svg>